PathFileType	4	(X/Y/Z)	C:\Users\°ÂÌØÂü\Desktop\20210112\bx_y_10_1801-Unnamed.trc
DataRate	CameraRate	NumFrames	NumMarkers	Units	OrigDataRate	OrigDataStartFrame	OrigNumFrames
50.00	50.00	       4	0	mm	50.00	118	       468
Frame#	Time	
		

118	2.340	-438.93500	294.50699	875.48523	-517.82770	-72.46395	143.18837	-675.09833	174.07240	153.94046	-814.98651	-69.53965	663.56891	-628.90283	297.71481	461.85413	-734.62524	-12.91972	700.37201	-795.71063	313.23190	667.46857	-725.58801	245.67899	697.55676	-706.03912	323.50754	588.15076	-603.74127	303.22537	544.58856	-519.53925	252.62906	476.29391	-531.41693	193.73448	538.51923	-571.20917	301.69205	514.84314	-438.30740	-21.98927	872.47473	-542.57251	-23.86233	468.27762	-1032.13806	125.90577	749.40051	-663.12000	-65.65488	165.32571	-704.19141	76.44349	212.12538	-760.62042	225.88786	208.22427	-622.88104	-75.32735	161.88791	-882.53949	296.08374	144.57086	-675.29144	53.97016	155.50258	-603.24170	19.94242	165.86574	-560.09406	-38.14964	162.00160	-699.66931	153.05980	211.10402	-592.89276	219.55919	171.19418	-665.30090	296.92984	161.06857	-628.71118	304.31104	161.87949	-559.23309	259.59314	162.89049	-528.30267	304.43021	146.56764	-276.62976	133.76457	1114.10913							-791.70264	169.14462	193.34651				-756.22510	-6.58433	209.94308	-791.49481	58.13340	181.03079	-651.16315	-69.13248	456.37891	-875.97748	-78.88188	141.21204							-602.86145	-76.17690	553.55200	-586.03668	-74.12727	515.46674	
119	2.360				-517.75769	-72.16154	142.98999	-675.20251	174.06792	153.99074	-816.29169	-70.39397	664.12848	-629.71979	297.32932	461.79559	-736.16400	-12.85351	699.80420	-796.74475	313.06473	668.52979	-726.75537	245.18898	698.11743	-707.17578	323.72412	589.02728	-605.02612	302.96967	545.27948	-519.82159	252.55266	477.32513	-532.55524	193.78287	539.40900	-572.37628	301.53305	515.84668	-441.15045	-23.98114	873.74213	-543.29352	-23.87810	469.38934	-1033.17236	125.44166	749.76746	-662.96936	-65.22919	165.19647	-704.31317	76.77487	212.15366	-760.65167	225.98872	208.28963	-622.39661	-75.19093	162.48120	-882.58673	296.07724	144.51712	-675.41034	54.08101	155.68669	-603.31146	20.26387	165.55144	-560.24109	-38.16046	162.20859	-700.43689	152.48386	212.13770	-593.14880	219.46182	171.24953	-665.41870	296.94092	160.88156	-628.83081	304.38672	161.73918	-559.25629	259.51163	163.00114	-528.42596	304.34100	146.44370	-280.15695	132.88004	1116.51794							-791.77216	169.17545	193.26112				-755.94940	-6.80677	210.05849	-791.32129	57.91522	181.01036	-651.83276	-69.28626	456.35989	-876.10980	-78.86684	141.15924							-604.37268	-75.97057	553.12604	-586.82642	-74.61673	515.89819	
120	2.380	-444.47958	293.65015	877.76410	-517.64783	-72.21353	143.00539	-675.50482	174.03859	153.96451	-817.26965	-70.81210	664.63751	-630.74976	297.73260	462.40924	-736.88446	-14.00970	700.92334	-798.07623	312.62717	669.38806	-728.11719	244.50761	698.79376	-708.57440	323.64691	589.84821	-606.51019	302.63593	545.86505	-521.12518	252.10094	478.41510	-534.41455	193.72705	539.51373	-573.68225	300.93451	516.36432	-444.26764	-25.28675	875.37219	-543.96777	-24.29746	469.98453	-1034.64734	125.00170	750.81006	-662.98993	-64.99880	165.25795	-704.46173	76.56477	212.19878	-760.90259	226.09465	208.24352	-622.15942	-74.58051	162.09979	-882.54730	296.17606	144.64073	-675.45203	53.78905	155.74977	-603.28210	19.97500	166.08055	-560.48468	-38.02761	162.16747	-700.76050	152.21983	212.34691	-593.28467	219.29503	171.00822	-665.41949	297.01501	160.97865	-628.91455	304.41748	161.59245	-559.37091	259.67740	162.91821	-527.93671	304.97571	146.99214	-282.57587	131.83733	1118.75659							-792.17950	169.22716	193.55339				-755.78412	-6.94000	210.02011	-791.30353	57.84219	180.95163	-652.77197	-69.44759	456.65808	-875.97589	-78.81084	141.28232							-605.73810	-77.14472	554.80786	-588.37732	-74.60244	516.19611	
121	2.400	-447.38187	294.22760	880.09125	-517.89069	-71.98252	142.47343	-675.68701	174.29723	154.05318	-818.58069	-70.97662	664.93164	-631.65997	297.38086	462.86099	-738.56067	-13.90394	701.55365	-799.03375	312.23636	670.94165	-729.29938	244.13972	699.70886	-709.71729	323.09482	591.14154	-608.16449	303.36908	547.45972	-522.19208	251.88907	479.37152	-535.55273	193.31192	540.06952	-575.24072	300.83002	517.55188	-446.70657	-27.55016	878.11194	-545.36316	-24.10447	470.40353	-1035.39807	124.84083	751.66504	-662.84821	-65.14456	165.28300	-704.97052	76.57567	212.77545	-760.99261	226.22908	208.01944	-622.22070	-74.71129	162.32486	-882.43616	296.14734	144.72641	-675.63489	53.69120	155.58549	-603.30768	19.86428	166.03798	-560.47491	-38.12672	162.38786	-701.21942	151.89951	212.47173	-593.37463	219.26509	171.08661	-665.52209	296.74438	160.71599	-628.76276	304.52682	161.92896	-559.38190	259.49634	163.11674	-528.12799	304.54727	146.78020	-284.34106	130.46303	1120.59302	-558.58197	34.75310	545.96619				-792.91833	169.24054	193.43596				-755.96552	-7.53857	209.47418	-791.86945	57.70412	180.87402	-653.23053	-69.71974	456.78146	-875.97748	-78.88188	141.21204							-607.20221	-76.88321	554.28766	-589.88190	-74.95934	516.95105	
